# xmcd CD database file
#
# Track frame offsets:
#	182
#	10770
#	21122
#	35742
#	48725
#	61182
#	71910
#	88275
#	99232
#	109337
#	123745
#	135105
#	144072
#	156390
#
# Disc length: 2261 seconds
#
# Revision: 2
# Processed by: cddbd v1.5PL3 Copyright (c) Steve Scherf et al.
# Submitted via: CDex 1.51
#
DISCID=c008d30e
DTITLE=Various Artist - Les plus belles chansons francaises - 1962
DYEAR=1996
DGENRE=Pop
TTITLE0=Belles, belles, belles - Phil Everly and Vline Buggy - par C. Jerome
TTITLE1=Une petite fille en pleurs - Nougaro and Datin - par Serge Lama
TTITLE2=Tous les garcons et les filles - Hardy and Datin - par Marie Myriam
TTITLE3=Retiens la nuit - Aznavour and Gavarentz - par Adamo
TTITLE4=Petit Gonzalez - Ethel Lee, Buddy Kaye, David S. and D. Gerard - par Richard Gotainer
TTITLE5=Non, je ne regrette rien - Dumont and Vaucaire - par Yves Duteil
TTITLE6=Ne me quitte pas - Brel - par Gerard Barbelivien
TTITLE7=Le jazz et la java - Nougaro and Datin - par Nicole Croisille
TTITLE8=Pour une amourette - L. Escudero - par Gerard Barbelivien
TTITLE9=Le plat pays - Brel - par Gerard Lenorman
TTITLE10=La javanaise - Gainsbourg - par Regine
TTITLE11=Jolie petite sheila - Rose T. and Carrere - par Dave
TTITLE12=Deux enfants au soleil - J. Ferrat and Delecluse - par Nicole Croisille
TTITLE13=Elle etait si jolie - A. Barriere - par Frank Noel
EXTD=YEAR: 1996
EXTT0=
EXTT1=
EXTT2=
EXTT3=
EXTT4=
EXTT5=
EXTT6=
EXTT7=
EXTT8=
EXTT9=
EXTT10=
EXTT11=
EXTT12=
EXTT13=
PLAYORDER=
